<?xml version="1.0" standalone="no"?>
<!DOCTYPE svg PUBLIC "-//W3C//DTD SVG 20010904//EN" "http://www.w3.org/TR/2001/REC-SVG-20010904/DTD/svg10.dtd">
<svg xmlns="http://www.w3.org/2000/svg" version="1.0" width="604.000000pt" height="431.000000pt" viewBox="0 0 604.000000 431.000000" preserveAspectRatio="xMidYMid meet">
<g transform="translate(0.000000,431.000000) scale(0.100000,-0.100000)" fill="#952826" stroke="none">
<path d="M5245 4104 c-46 -23 -89 -69 -318 -329 -447 -508 -1297 -1459 -1533 -1715 -319 -347 -504 -507 -700 -607 -153 -79 -208 -94 -369 -103 l-140 -8 -385 -181 c-536 -253 -679 -324 -779 -391 -177 -119 -257 -243 -205 -318 21 -31 43 -38 198 -67 413 -76 1205 -138 1766 -138 361 -1 479 17 648 99 203 98 312 246 512 694 50 113 116 252 146 310 213 403 601 807 978 1017 84 46 294 168 413 238 17 11 8 -1 -22 -30 -43 -40 -268 -194 -422 -290 l-48 -29 65 -6 c36 -4 75 -12 86 -18 39 -21 72 -71 83 -124 20 -100 31 -522 31 -1143 0 -470 3 -624 12 -633 17 -17 184 -16 195 1 4 6 8 221 9 477 3 502 16 729 59 1023 46 315 97 504 215 796 100 246 111 290 112 421 1 221 -79 463 -238 720 -96 156 -220 306 -276 336 -35 18 -56 18 -93 -2z m-2 -261 c-4 -11 -3 -14 5 -9 19 11 15 -1 -31 -98 -77 -163 -191 -330 -697 -1026 -130 -179 -303 -419 -385 -535 -220 -311 -481 -658 -571 -760 -158 -178 -342 -300 -523 -344 -191 -47 -430 -14 -621 85 -68 36 -133 83 -95 68 223 -82 334 -106 495 -107 230 0 410 78 602 261 125 120 254 287 588 762 79 113 266 369 415 570 378 509 437 589 535 725 99 138 214 309 253 378 28 47 42 62 30 30z"/>
<g fill="#4d3b3a">
<path d="M990 4059 c-62 -31 -239 -212 -338 -344 -97 -129 -210 -347 -238 -456 -11 -43 -19 -109 -19 -159 0 -72 4 -93 27 -140 31 -64 139 -177 248 -260 73 -55 319 -221 430 -290 209 -129 424 -344 752 -752 98 -123 184 -222 191 -221 7 1 39 12 72 24 48 18 85 23 183 25 138 3 199 17 304 70 163 82 302 188 497 378 146 144 335 351 329 363 -1 5 -49 70 -106 145 -99 133 -103 139 -88 160 9 12 16 33 16 46 0 34 -52 82 -88 82 -26 0 -33 7 -66 70 -30 56 -35 74 -26 89 5 11 10 29 10 40 0 29 -47 80 -83 89 -27 7 -40 22 -81 97 -45 82 -48 91 -37 121 20 55 -20 114 -79 114 -22 0 -32 14 -80 107 -94 183 -143 192 -391 76 l-96 -45 -96 40 c-134 55 -214 103 -432 259 -320 228 -431 284 -580 290 -78 4 -96 1 -135 -18z m101 -209 c74 -181 270 -373 447 -440 156 -60 275 -60 565 -4 98 19 224 36 280 39 102 5 102 5 57 -10 -78 -27 -432 -114 -510 -126 -226 -35 -446 23 -628 166 -142 111 -242 266 -250 385 -5 75 4 73 39 -10z m1729 -600 c9 -18 8 -20 -15 -20 -14 0 -25 -5 -25 -10 0 -6 20 -51 45 -100 43 -87 44 -90 23 -90 -19 1 -31 17 -66 92 -42 90 -42 90 -75 84 -17 -3 -72 -26 -122 -50 -79 -39 -92 -43 -105 -30 -20 20 -5 41 53 77 70 43 145 66 214 67 52 0 64 -3 73 -20z m184 -322 l18 -23 -40 -3 -40 -3 38 -77 c36 -74 37 -77 17 -85 -11 -4 -21 -6 -22 -5 -2 2 -21 40 -44 86 -23 45 -43 82 -44 82 -13 0 -143 -47 -194 -70 -62 -28 -63 -28 -74 -9 -15 28 3 46 79 81 95 43 159 58 227 54 47 -4 64 -9 79 -28z m152 -293 c21 -29 17 -35 -25 -35 l-39 0 33 -78 c19 -43 37 -98 40 -122 l6 -45 -35 60 c-20 33 -36 65 -36 70 -1 6 -11 -25 -24 -67 -12 -43 -39 -102 -60 -133 -77 -117 -166 -182 -435 -319 l-172 -87 -107 99 c-160 148 -373 323 -450 368 -233 138 -421 167 -600 93 l-47 -19 25 21 c40 34 117 69 176 80 148 27 385 -56 591 -209 81 -61 270 -220 360 -304 28 -26 57 -48 64 -48 7 0 64 28 128 61 286 152 373 215 435 317 56 94 87 213 63 246 -12 16 -17 15 -81 -4 -37 -12 -102 -37 -144 -56 -77 -35 -88 -35 -94 1 -2 16 13 28 81 62 109 54 180 73 265 70 54 -2 71 -7 82 -22z"/>
<path d="M303 2975 c-12 -9 -31 -43 -43 -82 -12 -38 -45 -126 -72 -197 -54 -137 -58 -179 -24 -244 22 -43 164 -173 288 -265 114 -84 429 -301 471 -324 25 -14 45 -12 210 24 l118 27 -73 73 c-74 75 -79 84 -28 58 118 -61 289 -262 517 -606 l104 -157 94 56 c52 30 95 58 95 61 0 7 -274 360 -374 482 -174 210 -267 290 -616 524 -446 300 -553 392 -606 524 -14 36 -15 44 -3 52 10 6 7 9 -11 9 -14 0 -35 -7 -47 -15z"/>
<path d="M4208 1387 c-38 -61 -127 -242 -197 -399 -71 -160 -155 -331 -183 -371 -14 -20 -17 -32 -10 -39 6 -6 60 -26 121 -44 299 -91 644 -125 885 -89 55 8 110 15 124 15 21 0 23 -2 11 -16 -37 -44 -191 -84 -329 -84 -196 0 -528 54 -736 121 l-128 41 -20 -29 c-34 -46 -129 -143 -158 -161 -16 -9 -28 -19 -28 -22 0 -19 383 -107 610 -141 195 -29 519 -37 625 -15 167 35 232 88 255 211 11 56 10 70 -4 105 -9 22 -16 59 -16 83 0 68 -28 177 -61 246 -50 100 -148 195 -404 386 -126 95 -250 189 -275 209 -25 19 -47 36 -50 36 -3 0 -17 -19 -32 -43z"/>
</g>
</svg>
